<svg width="24" height="24" viewBox="0 0 24 24" fill="none" xmlns="http://www.w3.org/2000/svg"><path fill-rule="evenodd" clip-rule="evenodd" d="M2.272 6.365C2 6.9 2 7.6 2 9v6c0 1.4 0 2.1.272 2.635a2.5 2.5 0 0 0 1.093 1.092C3.9 19 4.6 19 6 19h6c1.4 0 2.1 0 2.635-.273a2.5 2.5 0 0 0 1.092-1.092C16 17.1 16 16.4 16 15v-.42l4.407 3.25A1 1 0 0 0 22 17.025V6.98a1 1 0 0 0-1.593-.805L16 9.42V9c0-1.4 0-2.1-.273-2.635a2.5 2.5 0 0 0-1.092-1.093C14.1 5 13.4 5 12 5H6c-1.4 0-2.1 0-2.635.272a2.5 2.5 0 0 0-1.093 1.093z" fill="currentColor"/></svg>