<svg width="24" height="24" viewBox="0 0 24 24" fill="none" xmlns="http://www.w3.org/2000/svg"><path fill-rule="evenodd" clip-rule="evenodd" d="M4.136 20.915c.078.054.17.084.266.085 2.724.03 4.721-.496 5.985-1.643.68.143 1.387.218 2.113.218 5.247 0 9.5-3.934 9.5-8.787C22 5.933 17.747 2 12.5 2S3 5.934 3 10.787c0 2.25.914 4.303 2.418 5.858-.128 1.27-.593 2.483-1.398 3.64-.15.216-.1.48.116.63zM10.8 17.42a1.875 1.875 0 0 0-1.646.446c-.503.457-1.566 1.088-2.563 1.28.468-.679.714-1.669.786-2.38a1.875 1.875 0 0 0-.518-1.491C5.663 14.038 5 12.463 5 10.797 5 7.077 8.327 4 12.5 4S20 7.077 20 10.797c0 3.72-3.327 6.797-7.5 6.797-.579 0-1.148-.06-1.7-.175z" fill="currentColor"/></svg>