<svg width="24" height="24" viewBox="0 0 24 24" fill="none" xmlns="http://www.w3.org/2000/svg"><path fill-rule="evenodd" clip-rule="evenodd" d="M8 3a1 1 0 0 0 1 1h5.795c1.114 0 1.519.116 1.926.334.407.218.727.538.945.945.218.407.334.811.334 1.926V17a1 1 0 0 0 2 0V7.128c0-1.783-.186-2.43-.534-3.082a3.635 3.635 0 0 0-1.512-1.512C17.302 2.186 16.655 2 14.872 2H9a1 1 0 0 0-1 1zm4.795 3h-5.59c-1.115 0-1.519.116-1.926.334a2.272 2.272 0 0 0-.945.945C4.116 7.686 4 8.09 4 9.205V20.92a1 1 0 0 0 1.624.781L10 18.204l4.376 3.497a1 1 0 0 0 1.624-.78V9.204c0-1.115-.116-1.519-.334-1.926a2.272 2.272 0 0 0-.945-.945C14.314 6.116 13.91 6 12.795 6z" fill="currentColor"/></svg>