<svg width="24" height="24" viewBox="0 0 24 24" fill="none" xmlns="http://www.w3.org/2000/svg"><path fill-rule="evenodd" clip-rule="evenodd" d="M5 3a1 1 0 0 1 1-1h12a1 1 0 1 1 0 2H6a1 1 0 0 1-1-1zm10.795 3h-7.59c-1.115 0-1.519.116-1.926.334a2.272 2.272 0 0 0-.945.945C5.116 7.686 5 8.09 5 9.205v5.59c0 1.114.116 1.519.334 1.926.218.407.538.727.945.945.407.218.811.334 1.926.334h7.59c1.115 0 1.519-.116 1.926-.334.407-.218.727-.538.945-.945.218-.407.334-.812.334-1.926v-5.59c0-1.115-.116-1.519-.334-1.926a2.272 2.272 0 0 0-.945-.945C17.314 6.116 16.91 6 15.795 6zM7.356 8.049c.155-.03.422-.049.849-.049h7.59c.427 0 .694.019.849.049.06.012.074.017.134.049a.275.275 0 0 1 .125.124c.031.06.036.073.048.134.03.155.049.422.049.849v5.59c0 .427-.019.694-.049.849a.353.353 0 0 1-.049.134.275.275 0 0 1-.124.124.353.353 0 0 1-.134.049c-.155.03-.422.049-.849.049h-7.59c-.427 0-.694-.019-.849-.049a.353.353 0 0 1-.134-.049.275.275 0 0 1-.124-.124.353.353 0 0 1-.049-.134c-.03-.155-.049-.422-.049-.849v-5.59c0-.427.019-.694.049-.849a.353.353 0 0 1 .049-.134.275.275 0 0 1 .124-.124.353.353 0 0 1 .134-.049zM6 20a1 1 0 1 0 0 2h12a1 1 0 1 0 0-2H6z" fill="currentColor"/></svg>