<svg width="24" height="24" viewBox="0 0 24 24" fill="none" xmlns="http://www.w3.org/2000/svg"><path fill-rule="evenodd" clip-rule="evenodd" d="M14.795 2h-5.59c-1.115 0-1.519.116-1.926.334a2.272 2.272 0 0 0-.945.945C6.116 3.686 6 4.09 6 5.205v13.59c0 1.114.116 1.519.334 1.926.218.407.538.727.945.945.407.218.811.334 1.926.334h5.59c1.114 0 1.519-.116 1.926-.334.407-.218.727-.538.945-.945.218-.407.334-.811.334-1.926V5.205c0-1.115-.116-1.519-.334-1.926a2.272 2.272 0 0 0-.945-.945C16.314 2.116 15.91 2 14.795 2zM8.356 4.049c.155-.03.422-.049.849-.049h5.59c.427 0 .694.019.849.049.06.012.074.017.134.049a.275.275 0 0 1 .124.124c.032.06.037.073.049.134.03.155.049.422.049.849v13.59c0 .427-.019.694-.049.849a.353.353 0 0 1-.049.134.275.275 0 0 1-.124.125.353.353 0 0 1-.134.048c-.155.03-.422.049-.849.049h-5.59c-.427 0-.694-.019-.849-.049a.353.353 0 0 1-.134-.049.275.275 0 0 1-.124-.124.353.353 0 0 1-.049-.134c-.03-.155-.049-.422-.049-.849V5.205c0-.427.019-.694.049-.849a.353.353 0 0 1 .049-.134.275.275 0 0 1 .124-.124.353.353 0 0 1 .134-.049zM20 6a1 1 0 1 1 2 0v12a1 1 0 1 1-2 0V6zM3 5a1 1 0 0 0-1 1v12a1 1 0 1 0 2 0V6a1 1 0 0 0-1-1z" fill="currentColor"/></svg>