<svg width="24" height="24" viewBox="0 0 24 24" fill="none" xmlns="http://www.w3.org/2000/svg"><path fill-rule="evenodd" clip-rule="evenodd" d="M13.06 2.407a1.495 1.495 0 0 0-2.115 0C9.13 4.218 5.59 7.75 5.303 8.04c-.39.39-.39 1.03 0 1.42.39.39 1.02.39 1.41 0l2.716-2.716a9.992 9.992 0 0 0 1.407-1.768l.214-.343.207.209a10 10 0 0 0-.255 2.239v13.922a1 1 0 1 0 2 0V7.08a10 10 0 0 0-.254-2.24l.207-.208.214.343c.401.64.872 1.233 1.407 1.768l2.716 2.716c.39.39 1.02.39 1.41 0 .39-.39.39-1.03 0-1.42-.288-.289-3.827-3.822-5.642-5.633z" fill="currentColor"/></svg>