<svg width="24" height="24" viewBox="0 0 24 24" fill="none" xmlns="http://www.w3.org/2000/svg"><path fill-rule="evenodd" clip-rule="evenodd" d="M5.163 3.819C5 4.139 5 4.559 5 5.4v13.2c0 .84 0 1.26.163 1.581a1.5 1.5 0 0 0 .656.655c.32.164.74.164 1.581.164h.2c.84 0 1.26 0 1.581-.163a1.5 1.5 0 0 0 .656-.656c.163-.32.163-.74.163-1.581V5.4c0-.84 0-1.26-.163-1.581a1.5 1.5 0 0 0-.656-.656C8.861 3 8.441 3 7.6 3h-.2c-.84 0-1.26 0-1.581.163a1.5 1.5 0 0 0-.656.656zm9 0C14 4.139 14 4.559 14 5.4v13.2c0 .84 0 1.26.164 1.581a1.5 1.5 0 0 0 .655.655c.32.164.74.164 1.581.164h.2c.84 0 1.26 0 1.581-.163a1.5 1.5 0 0 0 .655-.656c.164-.32.164-.74.164-1.581V5.4c0-.84 0-1.26-.163-1.581a1.5 1.5 0 0 0-.656-.656C17.861 3 17.441 3 16.6 3h-.2c-.84 0-1.26 0-1.581.163a1.5 1.5 0 0 0-.655.656z" fill="currentColor"/></svg>