<svg width="24" height="24" viewBox="0 0 24 24" fill="none" xmlns="http://www.w3.org/2000/svg"><path fill-rule="evenodd" clip-rule="evenodd" d="M6 6c0-1.4 0-2.1.272-2.635a2.5 2.5 0 0 1 1.093-1.093C7.9 2 8.6 2 10 2h4c1.4 0 2.1 0 2.635.272a2.5 2.5 0 0 1 1.092 1.093C18 3.9 18 4.6 18 6v12c0 1.4 0 2.1-.273 2.635a2.5 2.5 0 0 1-1.092 1.092C16.1 22 15.4 22 14 22h-4c-1.4 0-2.1 0-2.635-.273a2.5 2.5 0 0 1-1.093-1.092C6 20.1 6 19.4 6 18V6zm14 0a1 1 0 1 1 2 0v12a1 1 0 1 1-2 0V6zM3 5a1 1 0 0 0-1 1v12a1 1 0 1 0 2 0V6a1 1 0 0 0-1-1z" fill="currentColor"/></svg>