<svg width="24" height="24" viewBox="0 0 24 24" fill="none" xmlns="http://www.w3.org/2000/svg"><path fill-rule="evenodd" clip-rule="evenodd" d="M7 8a1 1 0 0 1 1-1h8a1 1 0 1 1 0 2H8a1 1 0 0 1-1-1zm0 4a1 1 0 0 1 1-1h8a1 1 0 0 1 0 2H8a1 1 0 0 1-1-1zm1 3a1 1 0 0 0 0 2h3a1 1 0 0 0 0-2H8z" fill="currentColor"/><path d="M4 16.8V7.2c0-1.12 0-1.68.22-2.1a2 2 0 0 1 .87-.88C5.52 4 6.08 4 7.2 4h9.6c1.12 0 1.68 0 2.1.22a2 2 0 0 1 .88.87c.22.43.22.99.22 2.11v9.6c0 1.12 0 1.68-.22 2.1a2 2 0 0 1-.87.88c-.43.22-.99.22-2.11.22H7.2c-1.12 0-1.68 0-2.1-.22a2 2 0 0 1-.88-.87C4 18.48 4 17.92 4 16.8z" stroke="currentColor" stroke-width="2"/></svg>