<svg width="24" height="24" viewBox="0 0 24 24" fill="none" xmlns="http://www.w3.org/2000/svg"><path fill-rule="evenodd" clip-rule="evenodd" d="M5 6.75a1.75 1.75 0 1 0 0-3.5 1.75 1.75 0 0 0 0 3.5zm0 14a1.75 1.75 0 1 0 0-3.5 1.75 1.75 0 0 0 0 3.5zM6.75 12a1.75 1.75 0 1 1-3.5 0 1.75 1.75 0 0 1 3.5 0zM12 6.75a1.75 1.75 0 1 0 0-3.5 1.75 1.75 0 0 0 0 3.5zM13.75 19a1.75 1.75 0 1 1-3.5 0 1.75 1.75 0 0 1 3.5 0zM12 13.75a1.75 1.75 0 1 0 0-3.5 1.75 1.75 0 0 0 0 3.5zM20.75 5a1.75 1.75 0 1 1-3.5 0 1.75 1.75 0 0 1 3.5 0zM19 20.75a1.75 1.75 0 1 0 0-3.5 1.75 1.75 0 0 0 0 3.5zM20.75 12a1.75 1.75 0 1 1-3.5 0 1.75 1.75 0 0 1 3.5 0z" fill="currentColor"/></svg>