<svg width="24" height="24" viewBox="0 0 24 24" fill="none" xmlns="http://www.w3.org/2000/svg"><path fill-rule="evenodd" clip-rule="evenodd" d="M5 3a1 1 0 0 1 1-1h12a1 1 0 1 1 0 2H6a1 1 0 0 1-1-1zm0 7c0-1.4 0-2.1.272-2.635a2.5 2.5 0 0 1 1.093-1.093C6.9 6 7.6 6 9 6h6c1.4 0 2.1 0 2.635.272a2.5 2.5 0 0 1 1.092 1.093C19 7.9 19 8.6 19 10v4c0 1.4 0 2.1-.273 2.635a2.5 2.5 0 0 1-1.092 1.092C17.1 18 16.4 18 15 18H9c-1.4 0-2.1 0-2.635-.273a2.5 2.5 0 0 1-1.093-1.092C5 16.1 5 15.4 5 14v-4zm1 10a1 1 0 1 0 0 2h12a1 1 0 1 0 0-2H6z" fill="currentColor"/></svg>