<svg width="24" height="24" viewBox="0 0 24 24" fill="none" xmlns="http://www.w3.org/2000/svg"><path fill-rule="evenodd" clip-rule="evenodd" d="M5 8a1 1 0 0 1-2 0V5.923c0-.76.082-1.185.319-1.627.223-.419.558-.754.977-.977C4.738 3.082 5.162 3 5.923 3H8a1 1 0 0 1 0 2H5.923c-.459 0-.57.022-.684.082a.364.364 0 0 0-.157.157c-.06.113-.082.225-.082.684V8zm3 11a1 1 0 1 1 0 2H5.923c-.76 0-1.185-.082-1.627-.319a2.363 2.363 0 0 1-.977-.977C3.082 19.262 3 18.838 3 18.077V16a1 1 0 1 1 2 0v2.077c0 .459.022.57.082.684.038.07.087.12.157.157.113.06.225.082.684.082H8zm7-15a1 1 0 0 0 1 1h2.077c.459 0 .57.022.684.082.07.038.12.087.157.157.06.113.082.225.082.684V8a1 1 0 1 0 2 0V5.923c0-.76-.082-1.185-.319-1.627a2.363 2.363 0 0 0-.977-.977C19.262 3.082 18.838 3 18.077 3H16a1 1 0 0 0-1 1zm4 12a1 1 0 1 1 2 0v2.077c0 .76-.082 1.185-.319 1.627a2.364 2.364 0 0 1-.977.977c-.442.237-.866.319-1.627.319H16a1 1 0 1 1 0-2h2.077c.459 0 .57-.022.684-.082a.363.363 0 0 0 .157-.157c.06-.113.082-.225.082-.684V16zM3 11a1 1 0 1 0 0 2h18a1 1 0 1 0 0-2H3z" fill="currentColor"/></svg>