<svg width="24" height="24" viewBox="0 0 24 24" fill="none" xmlns="http://www.w3.org/2000/svg"><path fill-rule="evenodd" clip-rule="evenodd" d="M21 7c0 3.147-.578 5.86-1.619 8.139L8.25 4.007a31.17 31.17 0 0 0 3.196-1.839 1 1 0 0 1 1.11 0c1.935 1.29 4.543 2.594 7.816 3.903A1 1 0 0 1 21 7zM4.36 5.774c-.24.1-.484.198-.731.297A1 1 0 0 0 3 7c0 4.968 1.44 8.855 3.87 11.66C8.581 20.637 10.851 22 12 22c1.148 0 3.418-1.362 5.13-3.34l.054-.062 2.109 2.11a1 1 0 0 0 1.414-1.415l-16-16a1 1 0 0 0-1.414 1.414L4.36 5.774z" fill="currentColor"/></svg>