<svg width="24" height="24" viewBox="0 0 24 24" fill="none" xmlns="http://www.w3.org/2000/svg"><path fill-rule="evenodd" clip-rule="evenodd" d="M7.093 15H4.5A1.5 1.5 0 0 1 3 13.5v-3A1.5 1.5 0 0 1 4.5 9h2.593l5.181-5.469C12.896 2.875 14 3.315 14 4.22v15.562c0 .904-1.104 1.344-1.726.688L7.093 15zm12.978 4.07a1 1 0 1 1-1.414-1.413A7.97 7.97 0 0 0 21 12a7.97 7.97 0 0 0-2.343-5.656 1 1 0 1 1 1.415-1.415A9.97 9.97 0 0 1 23 12a9.97 9.97 0 0 1-2.929 7.07zm-3.673-3.269a1 1 0 0 0 1.4-.198A5.978 5.978 0 0 0 19 12a5.977 5.977 0 0 0-1.197-3.596 1 1 0 0 0-1.6 1.2c.515.686.797 1.518.797 2.396 0 .88-.284 1.714-.8 2.401a1 1 0 0 0 .198 1.4z" fill="currentColor"/></svg>