<svg width="24" height="24" viewBox="0 0 24 24" fill="none" xmlns="http://www.w3.org/2000/svg"><path fill-rule="evenodd" clip-rule="evenodd" d="M21.707 20.707a1 1 0 0 0 0-1.414l-16-16a1 1 0 0 0-1.414 1.414L8.586 9H6.5A1.5 1.5 0 0 0 5 10.5v3A1.5 1.5 0 0 0 6.5 15h2.593l4.75 5.013a1.25 1.25 0 0 0 2.157-.86v-2.739l4.293 4.293a1 1 0 0 0 1.414 0zM14 14.414l-3.74-3.74-.307.326H7v2h2.953L14 17.271v-2.857zm2-9.567v5.91l-2-2V6.73l-.987 1.041-1.415-1.414 2.245-2.37a1.25 1.25 0 0 1 2.157.86z" fill="currentColor"/></svg>